# xmcd
#
# Track frame offsets:
#	150
#	7292
#	28221
#	39347
#	68714
#	85833
#	100071
#	109504
#	115260
#	127863
#	138907
#
# Disc length: 2066 seconds
#
# Revision: 1
# Processed by: cddbd v1.5.1PL2 Copyright (c) Steve Scherf et al.
# Submitted via: audiograbber 1.81.03
#
DISCID=8808100b
DTITLE=Petunia - Hayride to Hell
DYEAR=2003
DGENRE=country
TTITLE0=Come On Down to the Show Tonight
TTITLE1=Hillbilly Hut
TTITLE2=When the Sun Goes Down
TTITLE3=It Ain't
TTITLE4=As the Sun Slowly Creeps
TTITLE5=Mists of the Morning
TTITLE6=Politics and Police
TTITLE7=Honeybabe
TTITLE8=Teadrops Rollin
TTITLE9=ZuZu
TTITLE10=Cowboy Waltz
EXTD=
EXTT0=
EXTT1=
EXTT2=
EXTT3=
EXTT4=
EXTT5=
EXTT6=
EXTT7=
EXTT8=
EXTT9=
EXTT10=
PLAYORDER=
